<svg xmlns="http://www.w3.org/2000/svg" width="47" height="68" viewBox="0 0 47 62">
    <g fill="none" fill-rule="nonzero">
        <g stroke="#0C4171" stroke-width="2">
            <path fill="#FFF" d="M19 1a1 1 0 0 0-1 1v36a1 1 0 0 0 1 1h26a1 1 0 0 0 1-1V10.264a1 1 0 0 0-.297-.711l-8.36-8.264A1 1 0 0 0 36.64 1H19z"/>
            <path d="M44.586 9L38 2.414V8a1 1 0 0 0 1 1h5.586z"/>
            <path fill="#FFF" d="M13 7a1 1 0 0 0-1 1v36a1 1 0 0 0 1 1h26a1 1 0 0 0 1-1V16.264a1 1 0 0 0-.297-.711l-8.36-8.264A1 1 0 0 0 30.64 7H13z"/>
            <path d="M38.586 15L32 8.414V14a1 1 0 0 0 1 1h5.586z"/>
            <path fill="#FFF" d="M7 13a1 1 0 0 0-1 1v36a1 1 0 0 0 1 1h26a1 1 0 0 0 1-1V22.264a1 1 0 0 0-.297-.711l-8.36-8.264A1 1 0 0 0 24.64 13H7z"/>
            <path d="M32.586 21L26 14.414V20a1 1 0 0 0 1 1h5.586z"/>
            <path stroke-linecap="round" stroke-linejoin="round" d="M9.5 25.5h8.124M9.5 28.5h8.124M9.5 31.5h8.124M9.5 34.5h8.124M10.31 44.805c2.687-1.003 3.761-2.214 3.221-3.631-.81-2.127-3.087 4.947-1.543 5.72 1.543.774 3.123-2.089 4.928-2.089 1.805 0 .032 1.662 2.772.831 2.739-.83 3.773-1.734 5.312-1.734"/>
        </g>
        <circle cx="16.5" cy="45.5" r="16.5" fill="#208CED" style="mix-blend-mode:darken"/>
    </g>
</svg>
