<svg xmlns="http://www.w3.org/2000/svg" width="49" height="68" viewBox="0 0 49 49">
    <g fill="none" fill-rule="nonzero" transform="translate(-1)">
        <g stroke="#0C4171" stroke-width="2">
            <path d="M33.438 35.148l-18.875-18.33L3.53 27.878a3 3 0 0 0 .002 4.24L17.88 46.464a3 3 0 0 0 4.242 0l11.317-11.316z"/>
            <path stroke-dasharray="5,5" stroke-linecap="round" stroke-linejoin="round" d="M14.722 10.722l24.317 24.317"/>
            <path d="M20.678 10.736l18.2 18.972 9.536-9.536A2 2 0 0 0 49 18.757V3a2 2 0 0 0-2-2H31.243a2 2 0 0 0-1.415.586l-9.15 9.15z"/>
            <circle cx="42.5" cy="7.5" r="2.5" stroke-linecap="round" stroke-linejoin="round"/>
        </g>
        <circle cx="27.5" cy="24.5" r="16.5" fill="#12C890" style="mix-blend-mode:darken"/>
    </g>
</svg>
