<svg xmlns="http://www.w3.org/2000/svg" width="500" height="353" viewBox="0 0 500 353">
    <defs>
        <filter id="a" width="206.7%" height="211.5%" x="-53.3%" y="-55.8%" filterUnits="objectBoundingBox">
            <feOffset dy="2" in="SourceAlpha" result="shadowOffsetOuter1"/>
            <feGaussianBlur in="shadowOffsetOuter1" result="shadowBlurOuter1" stdDeviation="27.5"/>
            <feComposite in="shadowBlurOuter1" in2="SourceAlpha" operator="out" result="shadowBlurOuter1"/>
            <feColorMatrix in="shadowBlurOuter1" result="shadowMatrixOuter1" values="0 0 0 0 0 0 0 0 0 0 0 0 0 0 0 0 0 0 0.2 0"/>
            <feMerge>
                <feMergeNode in="shadowMatrixOuter1"/>
                <feMergeNode in="SourceGraphic"/>
            </feMerge>
        </filter>
    </defs>
    <g fill="none" fill-rule="nonzero">
        <path fill="transparent" d="M0 0h500v350H0z"/>
        <path stroke="#0C4171" stroke-linecap="round" stroke-linejoin="round" stroke-width="4" d="M411 48.3H222c-5.523 0-10 4.477-10 10v144.118c0 5.522 4.477 10 10 10h89.063l58.854 35.882v-35.882H411c5.523 0 10-4.478 10-10V58.3c0-5.523-4.477-10-10-10z"/>
        <path stroke="#0C4171" stroke-linecap="round" stroke-linejoin="round" stroke-width="4" d="M280 143c-4.97 0-9-3.806-9-8.5s4.03-8.5 9-8.5 9 3.806 9 8.5-4.03 8.5-9 8.5zm36 0c-4.97 0-9-3.806-9-8.5s4.03-8.5 9-8.5 9 3.806 9 8.5-4.03 8.5-9 8.5zm36 0c-4.97 0-9-3.806-9-8.5s4.03-8.5 9-8.5 9 3.806 9 8.5-4.03 8.5-9 8.5z"/>
        <path fill="#208CED" d="M277 140c-4.97 0-9-3.806-9-8.5s4.03-8.5 9-8.5 9 3.806 9 8.5-4.03 8.5-9 8.5zm36 0c-4.97 0-9-3.806-9-8.5s4.03-8.5 9-8.5 9 3.806 9 8.5-4.03 8.5-9 8.5zm36 0c-4.97 0-9-3.806-9-8.5s4.03-8.5 9-8.5 9 3.806 9 8.5-4.03 8.5-9 8.5z" style="mix-blend-mode:darken"/>
        <g filter="url(#a)" transform="translate(80 100.7)">
            <path fill="#FFF" stroke="#0C4171" stroke-linecap="round" stroke-linejoin="round" stroke-width="4" d="M10 0h189c5.523 0 10 4.477 10 10v144.118c0 5.522-4.477 10-10 10h-89.063L51.083 200v-35.882H10c-5.523 0-10-4.478-10-10V10C0 4.477 4.477 0 10 0z"/>
            <path stroke="#0C4171" stroke-linecap="round" stroke-linejoin="round" stroke-width="4" d="M69.5 95.3a8.5 8.5 0 1 1 0-17 8.5 8.5 0 0 1 0 17zm35 0a8.5 8.5 0 1 1 0-17 8.5 8.5 0 0 1 0 17zm34 0a8.5 8.5 0 1 1 0-17 8.5 8.5 0 0 1 0 17z"/>
            <path fill="#12C890" d="M64 91.3a9 9 0 1 1 0-18 9 9 0 0 1 0 18zm37 0a9 9 0 1 1 0-18 9 9 0 0 1 0 18zm36 0a9 9 0 1 1 0-18 9 9 0 0 1 0 18z" style="mix-blend-mode:darken"/>
        </g>
    </g>
</svg>
