<svg xmlns="http://www.w3.org/2000/svg" width="500" height="350" viewBox="0 0 500 350">
    <defs>
        <filter id="a" width="282.6%" height="292.2%" x="-92.1%" y="-95.2%" filterUnits="objectBoundingBox">
            <feOffset dy="2" in="SourceAlpha" result="shadowOffsetOuter1"/>
            <feGaussianBlur in="shadowOffsetOuter1" result="shadowBlurOuter1" stdDeviation="27.5"/>
            <feComposite in="shadowBlurOuter1" in2="SourceAlpha" operator="out" result="shadowBlurOuter1"/>
            <feColorMatrix in="shadowBlurOuter1" result="shadowMatrixOuter1" values="0 0 0 0 0 0 0 0 0 0 0 0 0 0 0 0 0 0 0.1 0"/>
            <feMerge>
                <feMergeNode in="shadowMatrixOuter1"/>
                <feMergeNode in="SourceGraphic"/>
            </feMerge>
        </filter>
    </defs>
    <g fill="none" fill-rule="evenodd">
        <path fill="transparent" fill-rule="nonzero" d="M0 0h500v350H0z"/>
        <g fill-rule="nonzero" stroke="#0C4171" stroke-linecap="round" stroke-linejoin="round" stroke-width="4">
            <path fill="#FFF" d="M377 104v-5.75c0-9.527-8-17.25-17.87-17.25H240c15.884 0 25.812 7.667 29.783 23H377z"/>
            <path fill="#FFF" d="M360 81H247c-23.196 0-42 18.804-42 42v147h117.115c11.046 0 20-8.954 20-20V98.885C342.115 89.007 350.123 81 360 81z"/>
            <path fill="#FFF" d="M167 247v5.75c0 9.527 8 17.25 17.87 17.25H324c-11.353 0-17.31-7.667-17.87-23H167z"/>
            <path d="M309.056 140h-47.839M309 117h-24.37M309.056 158h-47.839M309.056 175h-47.839M309.056 193h-47.839M258 226.179c9.88-3.531 13.828-7.792 11.844-12.782-2.976-7.485-11.346 17.414-5.673 20.136 5.673 2.723 11.48-7.354 18.114-7.354s.119 5.85 10.188 2.925C302.54 226.18 306.343 223 312 223"/>
        </g>
        <g filter="url(#a)" transform="matrix(-1 0 0 1 239 103)">
            <path fill="#FFF" fill-rule="nonzero" stroke="#0C4171" stroke-linecap="round" stroke-linejoin="round" stroke-width="4" d="M105 3H10C4.477 3 0 7.477 0 13v71.906c0 5.523 4.477 10 10 10h44.508L86.892 115V94.906H105c5.523 0 10-4.477 10-10V13c0-5.523-4.477-10-10-10z"/>
            <path fill="#0DCAD4" fill-rule="nonzero" d="M111 0H16C10.477 0 6 4.477 6 10v71.906c0 5.523 4.477 10 10 10h44.508L92.892 112V91.906H111c5.523 0 10-4.477 10-10V10c0-5.523-4.477-10-10-10z" style="mix-blend-mode:darken"/>
            <path fill="#FFF" d="M66.892 36.572c-.425-.281-.846-.575-1.251-.878-1.133-.847-2.043-1.69-2.63-2.468-2.06-2.744-2.717-3.99-3.41-6.53a18.755 18.755 0 0 1-.31-1.398 44.267 44.267 0 0 1-.35-2.178c-.05-.352-.082-.62-.1-.765a2.211 2.211 0 0 0-.509-1.176c-.255-.3-.636-.65-1.158-.968-1.494-.91-3.302-.993-5.012.19-3.776 2.612-6.225 8.067-3.921 13.177a40.52 40.52 0 0 1 1.177 2.857c-2.25.226-4.522.56-6.642 1.028-1.385.305-2.65.657-3.777 1.062-3.225 1.16-4.521 3.673-3.928 7.021.204 1.155.738 2.361 1.429 3.31-.48 2.464.778 5.584 2.797 6.989.06 2.53.983 4.51 3.137 5.89.666 3.221 2.206 5.002 4.49 5.387.355.06.705.08 1.074.075.229-.004.256-.006.722-.04.097-.006.15-.01.185-.009 3.15-.066 15.232-2.247 20.86-3.804.23.166.496.286.787.35 4.98 1.08 6.656.941 13.883-1.296a2.14 2.14 0 0 0 1.48-1.808c.872-7.51-.773-15.282-4.332-25.458-.423-1.213-1.776-1.795-2.913-1.254-3.549 1.69-5.965 2.207-11.064 2.52a2.093 2.093 0 0 0-.714.174zm10.807 2.812c2.585 7.805 3.84 14.03 3.462 19.733-4.363 1.323-5.891 1.566-8.425 1.146.235-4.923-.778-12.869-2.636-19.144 3.004-.3 5.207-.789 7.599-1.735zm-11.74 2.554c1.735 5.661 2.728 13.08 2.605 17.544-4.713 1.387-17.21 3.67-20.04 3.728-.12.002-.229.008-.388.02-.502.035-.638.038-.798.01-.149-.025-.224-.07-.35-.234-.308-.412-.589-1.22-.761-2.518a2.179 2.179 0 0 0-1.21-1.68c-1.487-.71-1.832-1.617-1.622-3.679.125-1.215-.76-2.291-1.93-2.392a.992.992 0 0 1-.117-.104c-.214-.214-.437-.56-.605-.963-.307-.732-.32-1.358-.28-1.407a2.197 2.197 0 0 0-.479-3.163c-.246-.17-.762-1.054-.887-1.755-.232-1.315-.017-1.734 1.167-2.161.932-.336 2.017-.638 3.224-.904 2.012-.444 4.22-.762 6.394-.97a59.162 59.162 0 0 1 1.967-.154 2.084 2.084 0 0 0 1.863-1.427 2.63 2.63 0 0 0 .13-.812c.018-1.171-.568-3.155-2.062-6.478-1.277-2.843.213-6.182 2.428-7.72.08-.055.138-.091.186-.112.105.74.224 1.482.356 2.183a22.7 22.7 0 0 0 .387 1.728c.845 3.105 1.75 4.824 4.107 7.977.858 1.142 2.035 2.238 3.452 3.301a31.542 31.542 0 0 0 3.262 2.142z"/>
            <path fill="#0C4171" d="M64.892 38.572c-.425-.281-.846-.575-1.251-.878-1.133-.847-2.043-1.69-2.63-2.468-2.06-2.744-2.717-3.99-3.41-6.53a18.755 18.755 0 0 1-.31-1.398 44.267 44.267 0 0 1-.35-2.178c-.05-.352-.082-.62-.1-.765a2.211 2.211 0 0 0-.509-1.176c-.255-.3-.636-.65-1.158-.968-1.494-.91-3.302-.993-5.012.19-3.776 2.612-6.225 8.067-3.921 13.177a40.52 40.52 0 0 1 1.177 2.857c-2.25.226-4.522.56-6.642 1.028-1.385.305-2.65.657-3.777 1.062-3.225 1.16-4.521 3.673-3.928 7.021.204 1.155.738 2.361 1.429 3.31-.48 2.464.778 5.584 2.797 6.989.06 2.53.983 4.51 3.137 5.89.666 3.221 2.206 5.002 4.49 5.387.355.06.705.08 1.074.075.229-.004.256-.006.722-.04.097-.006.15-.01.185-.009 3.15-.066 15.232-2.247 20.86-3.804.23.166.496.286.787.35 4.98 1.08 6.656.941 13.883-1.296a2.14 2.14 0 0 0 1.48-1.808c.872-7.51-.773-15.282-4.332-25.458-.423-1.213-1.776-1.795-2.913-1.254-3.549 1.69-5.965 2.207-11.064 2.52a2.093 2.093 0 0 0-.714.174zm10.807 2.812c2.585 7.805 3.84 14.03 3.462 19.733-4.363 1.323-5.891 1.566-8.425 1.146.235-4.923-.778-12.869-2.636-19.144 3.004-.3 5.207-.789 7.599-1.735zm-11.74 2.554c1.735 5.661 2.728 13.08 2.605 17.544-4.713 1.387-17.21 3.67-20.04 3.728-.12.002-.229.008-.388.02-.502.035-.638.038-.798.01-.149-.025-.224-.07-.35-.234-.308-.412-.589-1.22-.761-2.518a2.179 2.179 0 0 0-1.21-1.68c-1.487-.71-1.832-1.617-1.622-3.679.125-1.215-.76-2.291-1.93-2.392a.992.992 0 0 1-.117-.104c-.214-.214-.437-.56-.605-.963-.307-.732-.32-1.358-.28-1.407a2.197 2.197 0 0 0-.479-3.163c-.246-.17-.762-1.054-.887-1.755-.232-1.315-.017-1.734 1.167-2.161.932-.336 2.017-.638 3.224-.904 2.012-.444 4.22-.762 6.394-.97a59.162 59.162 0 0 1 1.967-.154 2.084 2.084 0 0 0 1.863-1.427 2.63 2.63 0 0 0 .13-.812c.018-1.171-.568-3.155-2.062-6.478-1.277-2.843.213-6.182 2.428-7.72.08-.055.138-.091.186-.112.105.74.224 1.482.356 2.183a22.7 22.7 0 0 0 .387 1.728c.845 3.105 1.75 4.824 4.107 7.977.858 1.142 2.035 2.238 3.452 3.301a31.542 31.542 0 0 0 3.262 2.142z"/>
        </g>
    </g>
</svg>
