<?xml version="1.0" encoding="UTF-8"?>
<svg width="716px" height="163px" viewBox="0 0 716 163" version="1.1" xmlns="http://www.w3.org/2000/svg" xmlns:xlink="http://www.w3.org/1999/xlink">
    <!-- Generator: Sketch 52.5 (67469) - http://www.bohemiancoding.com/sketch -->
    <title>logo</title>
    <desc>Created with Sketch.</desc>
    <g id="branding" stroke="none" stroke-width="1" fill="none" fill-rule="evenodd">
        <g id="01-base-logo" transform="translate(-315.000000, -456.000000)">
            <g id="Group-5" transform="translate(250.000000, 260.000000)">
                <g id="Group">
                    <g id="logo" transform="translate(65.000000, 196.000000)">
                        <path d="M0.807692308,30.5384615 C0.807692308,13.969919 14.2391498,0.538461538 30.8076923,0.538461538 C47.3762348,0.538461538 60.8076923,13.969919 60.8076923,30.5384615 C60.8076923,47.107004 47.3762348,60.5384615 30.8076923,60.5384615 C14.2391498,60.5384615 0.807692308,47.107004 0.807692308,30.5384615 Z" id="Oval" fill="#208CED"></path>
                        <path d="M89.8076923,81.4615385 C89.8076923,64.892996 103.23915,51.4615385 119.807692,51.4615385 C136.376235,51.4615385 149.807692,64.892996 149.807692,81.4615385 C149.807692,98.030081 136.376235,111.461538 119.807692,111.461538 C103.23915,111.461538 89.8076923,98.030081 89.8076923,81.4615385 Z" id="Oval-Copy" fill="#12C890"></path>
                        <path d="M0.807692308,131.961538 C0.807692308,115.392996 14.2391498,101.961538 30.8076923,101.961538 C47.3762348,101.961538 60.8076923,115.392996 60.8076923,131.961538 C60.8076923,148.530081 47.3762348,161.961538 30.8076923,161.961538 C14.2391498,161.961538 0.807692308,148.530081 0.807692308,131.961538 Z" id="Oval-Copy-2" fill="#0DCAD4"></path>
                        <path d="M219.461538,159.400342 L219.461538,1.11538462 L283.772218,1.11538462 C303.706156,1.11538462 315.096977,3.25116364 325.301255,9.18388317 C336.454768,15.828529 343.336722,28.1685857 343.336722,41.4578774 C343.336722,56.6456394 336.217459,67.3245345 321.029697,74.6811067 C339.302473,83.4615316 347.133663,95.0896619 347.133663,113.362438 C347.133663,128.312891 341.200943,141.127565 330.759357,148.958755 C320.555079,156.789945 309.401566,159.400342 286.857232,159.400342 L219.461538,159.400342 Z M254.345929,62.5783589 L288.281085,62.5783589 C301.095759,62.5783589 307.740405,57.3575657 307.740405,46.9159794 C307.740405,36.7117018 301.095759,31.4909086 288.281085,31.4909086 L254.345929,31.4909086 L254.345929,62.5783589 Z M254.345929,129.024818 L287.806467,129.024818 C302.756921,129.024818 310.825419,122.380172 310.825419,109.802806 C310.825419,97.2254409 302.756921,90.5807951 287.806467,90.5807951 L254.345929,90.5807951 L254.345929,129.024818 Z M394.516316,80.8511351 L364.378101,80.8511351 C366.51388,54.5098604 382.888186,41.6951862 415.16218,41.6951862 C432.485721,41.6951862 445.775013,45.7294355 454.792746,53.5606252 C463.098554,60.9171974 466.183568,70.1722399 466.183568,87.0211634 L466.183568,139.703713 C466.183568,152.043769 466.658185,153.704931 470.455126,159.400342 L436.045353,159.400342 C434.6215,155.366092 434.6215,154.654166 433.434956,150.382608 C422.281443,159.63765 414.212945,162.485356 400.686344,162.485356 C375.294305,162.485356 358.445381,148.246829 358.445381,126.65173 C358.445381,105.056631 371.971982,93.903118 404.008667,88.6823248 L422.281443,85.5973107 C429.875324,84.4107668 432.485721,82.5122965 432.485721,77.7661209 C432.485721,71.3587838 425.841075,67.3245345 414.924871,67.3245345 C402.584815,67.3245345 395.940169,71.5960926 394.516316,80.8511351 Z M433.434956,122.380172 L433.434956,104.819322 C429.875324,106.243175 426.79031,107.19241 421.094899,108.378954 L408.992152,110.98935 C396.889404,113.837056 391.668611,117.871305 391.668611,124.75326 C391.668611,132.347141 398.075948,136.856007 408.754843,136.856007 C419.908356,136.856007 427.976854,132.109832 433.434956,122.380172 Z M521.872028,1.11538462 L521.872028,159.400342 L488.174182,159.400342 L488.174182,1.11538462 L521.872028,1.11538462 Z M577.32318,44.7802003 L577.32318,159.400342 L543.625333,159.400342 L543.625333,44.7802003 L577.32318,44.7802003 Z M577.32318,1.11538462 L577.32318,28.880512 L543.625333,28.880512 L543.625333,1.11538462 L577.32318,1.11538462 Z M654.132122,41.6951862 C690.440366,41.6951862 715.120479,66.3752994 715.120479,102.920852 C715.120479,137.567934 689.491131,162.485356 654.132122,162.485356 C618.535805,162.485356 593.381074,137.567934 593.381074,101.971617 C593.381074,66.6126082 618.535805,41.6951862 654.132122,41.6951862 Z M654.132122,68.5110784 C637.04589,68.5110784 627.31623,80.6138263 627.31623,101.971617 C627.31623,123.566716 637.04589,135.669463 654.369431,135.669463 C671.218355,135.669463 681.185323,123.566716 681.185323,102.683543 C681.185323,80.6138263 671.692972,68.5110784 654.132122,68.5110784 Z" id="Balio-Copy" fill="#0C4171"></path>
                    </g>
                </g>
            </g>
        </g>
    </g>
</svg>